<svg width="31" height="31" viewBox="0 0 31 31" fill="none" xmlns="http://www.w3.org/2000/svg">
<path d="M16.7083 27.0782V27.3613L16.9892 27.3263C22.8678 26.5932 27.4166 21.5789 27.4166 15.5018C27.4166 8.9204 22.0814 3.58512 15.5 3.58512C8.91856 3.58512 3.58329 8.9204 3.58329 15.5018C3.58329 21.5789 8.13208 26.5932 14.0107 27.3263L14.2916 27.3613V27.0782V18.4185V18.1685H14.0416H11.125C10.4576 18.1685 9.91663 17.6275 9.91663 16.9601C9.91663 16.2928 10.4576 15.7518 11.125 15.7518H14.0416H14.2916V15.5018V12.5851C14.2916 10.307 16.1384 8.46012 18.4166 8.46012H19.1458C19.8132 8.46012 20.3541 9.00112 20.3541 9.66846C20.3541 10.3358 19.8132 10.8768 19.1458 10.8768H18.4166C17.4731 10.8768 16.7083 11.6416 16.7083 12.5851V15.5018V15.7518L16.9583 15.7518H19.875C20.5423 15.7518 21.0833 16.2928 21.0833 16.9601C21.0833 17.6275 20.5423 18.1685 19.875 18.1685H16.9583H16.7083V18.4185V27.0782ZM29.8333 15.5018C29.8333 23.4178 23.416 29.8351 15.5 29.8351C7.58388 29.8351 1.16663 23.4178 1.16663 15.5018C1.16663 7.58571 7.58388 1.16846 15.5 1.16846C23.416 1.16846 29.8333 7.58571 29.8333 15.5018Z" fill="#333333" stroke="#F7F7F7" stroke-width="0.5"/>
</svg>
