<svg width="25" height="25" viewBox="0 0 25 25" fill="none" xmlns="http://www.w3.org/2000/svg">
<path d="M3.94297 15.796C3.09297 14.692 2.66797 14.139 2.66797 12.5C2.66797 10.86 3.09297 10.309 3.94297 9.204C5.63997 7 8.48597 4.5 12.668 4.5C16.85 4.5 19.696 7 21.393 9.204C22.243 10.31 22.668 10.861 22.668 12.5C22.668 14.14 22.243 14.691 21.393 15.796C19.696 18 16.85 20.5 12.668 20.5C8.48597 20.5 5.63997 18 3.94297 15.796Z" stroke="white" stroke-width="1.5"/>
<path d="M15.668 12.5C15.668 13.2956 15.3519 14.0587 14.7893 14.6213C14.2267 15.1839 13.4636 15.5 12.668 15.5C11.8723 15.5 11.1093 15.1839 10.5466 14.6213C9.98404 14.0587 9.66797 13.2956 9.66797 12.5C9.66797 11.7044 9.98404 10.9413 10.5466 10.3787C11.1093 9.81607 11.8723 9.5 12.668 9.5C13.4636 9.5 14.2267 9.81607 14.7893 10.3787C15.3519 10.9413 15.668 11.7044 15.668 12.5Z" stroke="white" stroke-width="1.5"/>
</svg>
