<svg width="30" height="26" viewBox="0 0 30 26" fill="none" xmlns="http://www.w3.org/2000/svg">
<path d="M2.0009 11.1918L2.00091 11.1918L26.9388 0.69158C28.344 0.099906 29.8505 1.28815 29.6023 2.79254L26.2935 22.8544C26.0014 24.6254 24.0592 25.6345 22.4413 24.7557C20.9586 23.9504 18.7622 22.7126 16.7848 21.4206C15.7972 20.7752 14.8449 20.1039 14.057 19.4559L14.057 19.4559C13.5415 19.032 13.0421 18.5752 12.6489 18.1048L12.5834 18.0265L12.4818 18.0164C11.0228 17.8717 9.18725 17.3579 7.48567 16.7969C5.41664 16.1147 3.35168 15.2947 2.00087 14.7347C0.389569 14.0668 0.453584 11.8432 2.0009 11.1918ZM4.6037 12.718L4.03687 12.9566L4.60946 13.1811C5.70723 13.6115 6.97764 14.0847 8.24235 14.5018L8.24238 14.5018C9.88231 15.0424 11.3916 15.4461 12.4855 15.586L12.6073 15.6016L12.694 15.5148L19.0206 9.18824L18.8439 9.01147L19.0206 9.18824C19.4925 8.71635 20.2576 8.71635 20.7294 9.18824L20.9062 9.01147L20.7294 9.18824C21.2013 9.66009 21.2013 10.4252 20.7294 10.8971L14.9528 16.6738L14.7715 16.8551L14.9574 17.0318C15.1339 17.1996 15.3446 17.3859 15.5919 17.5894L15.5919 17.5894C16.2853 18.1595 17.1572 18.777 18.1067 19.3976L18.1067 19.3976C19.9841 20.6242 22.0899 21.8138 23.5484 22.6069L23.8573 22.7749L23.9145 22.428L27.0028 3.70253L27.0765 3.2557L26.6592 3.43144L4.6037 12.718Z" fill="#333333" stroke="#F7F7F7" stroke-width="0.5"/>
</svg>
