<svg width="31" height="31" viewBox="0 0 31 31" fill="none" xmlns="http://www.w3.org/2000/svg">
<path d="M14.5844 11.7087L14.5844 11.7087C14.5198 11.6141 14.4541 11.517 14.3875 11.4187L14.3625 11.3817L14.3613 11.3799L13.887 10.692C13.3904 9.99517 12.8253 9.3024 12.1231 8.79019C11.8978 8.6258 11.6107 8.60584 11.3715 8.70836C10.0958 9.2551 9.02498 10.6348 9.07639 12.0319C9.07757 12.0638 9.07912 12.0977 9.08115 12.1336L9.10051 12.3816L9.13577 12.6739L9.19187 13.0123C9.43849 14.3157 10.1816 16.4281 12.3783 18.6248C14.575 20.8215 16.6873 21.5646 17.9907 21.8111L18.3317 21.8677C18.3821 21.8748 18.431 21.8812 18.478 21.8869L18.7502 21.9138L18.9737 21.9267C20.3682 21.9767 21.7459 20.912 22.2916 19.6386C22.2916 19.6386 22.2916 19.6386 22.2916 19.6386L14.5844 11.7087ZM14.5844 11.7087C14.785 12.002 14.7634 12.3908 14.5403 12.6581L14.4501 12.7488L13.1185 13.7378L13.1184 13.7378M14.5844 11.7087L13.1184 13.7378M13.1184 13.7378C12.8906 13.9071 12.807 14.2224 12.9506 14.4839L12.9506 14.484M13.1184 13.7378L12.9506 14.484M12.9506 14.484C13.2623 15.0511 13.8183 15.898 14.4616 16.5413C15.1053 17.185 15.9905 17.7756 16.5931 18.1202C16.8208 18.2505 17.094 18.207 17.274 18.0426L17.2857 18.032M12.9506 14.484L17.2857 18.032M17.2857 18.032L17.2959 18.02M17.2857 18.032L17.2959 18.02M17.2959 18.02L17.3518 17.9543L17.3619 17.9425M17.2959 18.02L17.3619 17.9425M17.3619 17.9425L17.3704 17.9295M17.3619 17.9425L17.3704 17.9295M17.3704 17.9295L18.242 16.602M17.3704 17.9295L18.242 16.602M18.242 16.602C18.4976 16.2683 18.9699 16.1959 19.3143 16.434C19.3144 16.4341 19.3145 16.4341 19.3146 16.4342L20.1033 16.984C20.1037 16.9842 20.1041 16.9845 20.1044 16.9848L18.242 16.602ZM8.08833 27.7725L7.99536 27.7184L7.8922 27.7488L3.47059 29.0493C2.58913 29.3086 1.76531 28.5433 1.91949 27.6706L1.95417 27.5247L3.25279 23.1094L3.28387 23.0038L3.22687 22.9095C1.91906 20.747 1.1665 18.2106 1.1665 15.5018C1.1665 7.58571 7.58375 1.16846 15.4998 1.16846C23.4159 1.16846 29.8332 7.58571 29.8332 15.5018C29.8332 23.4178 23.4159 29.8351 15.4998 29.8351C12.9724 29.8351 10.595 29.18 8.53149 28.0299L8.08833 27.7725ZM3.58317 15.5018C3.58317 17.8503 4.26127 20.0367 5.43189 21.8801C5.68792 22.2834 5.79683 22.7775 5.71223 23.2667L5.65975 23.4904L5.01764 25.6736L4.88832 26.1133L5.32802 25.984L7.51785 25.34C8.07595 25.1758 8.65856 25.2758 9.1215 25.5697C10.965 26.7404 13.1513 27.4185 15.4998 27.4185C22.0813 27.4185 27.4165 22.0832 27.4165 15.5018C27.4165 8.9204 22.0813 3.58512 15.4998 3.58512C8.91844 3.58512 3.58317 8.9204 3.58317 15.5018Z" fill="#333333" stroke="#F7F7F7" stroke-width="0.5"/>
</svg>
